<svg xmlns="http://www.w3.org/2000/svg" xmlns:xlink="http://www.w3.org/1999/xlink" width="500" zoomAndPan="magnify" viewBox="0 0 375 374.999991" height="500" preserveAspectRatio="xMidYMid meet" version="1.0"><defs><clipPath id="2ef7edb8ea"><path d="M 53 46.753906 L 293 46.753906 L 293 268 L 53 268 Z M 53 46.753906 " clip-rule="nonzero"/></clipPath><clipPath id="03122ca755"><path d="M 167 163 L 332.605469 163 L 332.605469 328 L 167 328 Z M 167 163 " clip-rule="nonzero"/></clipPath></defs><g clip-path="url(#2ef7edb8ea)"><path fill="#000000" d="M 159.886719 64.71875 L 159.886719 59.929688 C 159.886719 56.304688 161.371094 53.011719 163.761719 50.625 C 166.152344 48.238281 169.453125 46.757812 173.089844 46.757812 C 176.722656 46.757812 180.023438 48.238281 182.414062 50.625 C 184.804688 53.011719 186.289062 56.304688 186.289062 59.929688 L 186.289062 64.71875 L 230.804688 64.71875 L 230.804688 59.929688 C 230.804688 56.304688 232.289062 53.011719 234.683594 50.625 C 237.074219 48.238281 240.375 46.757812 244.007812 46.757812 C 247.640625 46.757812 250.945312 48.238281 253.335938 50.625 C 255.726562 53.011719 257.210938 56.304688 257.210938 59.929688 L 257.210938 64.71875 L 271.167969 64.71875 C 277.140625 64.71875 282.566406 67.152344 286.5 71.078125 C 290.429688 75 292.871094 80.414062 292.871094 86.375 L 292.871094 246.328125 C 292.871094 252.289062 290.429688 257.703125 286.5 261.628906 C 282.566406 265.550781 277.140625 267.988281 271.167969 267.988281 L 75.011719 267.988281 C 69.039062 267.988281 63.609375 265.550781 59.679688 261.628906 C 55.746094 257.703125 53.304688 252.289062 53.304688 246.328125 L 53.304688 86.375 C 53.304688 80.414062 55.746094 75 59.679688 71.078125 C 63.609375 67.152344 69.039062 64.71875 75.011719 64.71875 L 88.96875 64.71875 L 88.96875 59.929688 C 88.96875 56.304688 90.453125 53.011719 92.84375 50.625 C 95.234375 48.238281 98.535156 46.757812 102.167969 46.757812 C 105.804688 46.757812 109.105469 48.238281 111.496094 50.625 C 113.886719 53.011719 115.371094 56.304688 115.371094 59.929688 L 115.371094 64.71875 Z M 159.886719 64.71875 " fill-opacity="1" fill-rule="evenodd"/></g><path fill="#e5e9f7" d="M 285.71875 115.054688 L 60.457031 115.054688 L 60.457031 246.328125 C 60.457031 250.320312 62.09375 253.949219 64.734375 256.582031 C 67.375 259.214844 71.011719 260.851562 75.011719 260.851562 L 271.167969 260.851562 C 275.164062 260.851562 278.804688 259.214844 281.441406 256.582031 C 284.082031 253.949219 285.71875 250.320312 285.71875 246.328125 Z M 285.71875 115.054688 " fill-opacity="1" fill-rule="evenodd"/><path fill="#f14b4e" d="M 60.457031 107.917969 L 285.71875 107.917969 L 285.71875 86.375 C 285.71875 82.386719 284.082031 78.753906 281.441406 76.121094 C 278.804688 73.488281 275.164062 71.855469 271.167969 71.855469 L 257.210938 71.855469 L 257.210938 76.640625 C 257.210938 80.265625 255.726562 83.5625 253.335938 85.949219 C 250.945312 88.332031 247.640625 89.8125 244.007812 89.8125 C 240.375 89.8125 237.074219 88.332031 234.683594 85.949219 C 232.289062 83.5625 230.804688 80.265625 230.804688 76.640625 L 230.804688 71.855469 L 186.289062 71.855469 L 186.289062 76.640625 C 186.289062 80.265625 184.804688 83.5625 182.414062 85.949219 C 180.023438 88.332031 176.722656 89.8125 173.089844 89.8125 C 169.453125 89.8125 166.152344 88.332031 163.761719 85.949219 C 161.371094 83.5625 159.886719 80.265625 159.886719 76.640625 L 159.886719 71.855469 L 115.371094 71.855469 L 115.371094 76.640625 C 115.371094 80.265625 113.886719 83.5625 111.496094 85.949219 C 109.105469 88.332031 105.804688 89.8125 102.167969 89.8125 C 98.535156 89.8125 95.234375 88.332031 92.84375 85.949219 C 90.453125 83.5625 88.96875 80.265625 88.96875 76.640625 L 88.96875 71.855469 L 75.011719 71.855469 C 71.011719 71.855469 67.375 73.488281 64.734375 76.121094 C 62.09375 78.753906 60.457031 82.386719 60.457031 86.375 Z M 60.457031 107.917969 " fill-opacity="1" fill-rule="evenodd"/><path fill="#e5e9f7" d="M 106.441406 80.902344 C 107.539062 79.804688 108.21875 78.296875 108.21875 76.640625 L 108.21875 59.929688 C 108.21875 58.273438 107.539062 56.765625 106.441406 55.667969 C 105.339844 54.574219 103.828125 53.894531 102.167969 53.894531 C 100.507812 53.894531 98.996094 54.574219 97.898438 55.667969 C 96.800781 56.765625 96.121094 58.273438 96.121094 59.929688 L 96.121094 76.640625 C 96.121094 78.296875 96.800781 79.804688 97.898438 80.902344 C 98.996094 82 100.507812 82.679688 102.167969 82.679688 C 103.828125 82.679688 105.339844 82 106.441406 80.902344 Z M 237.957031 59.929688 L 237.957031 76.640625 C 237.957031 78.296875 238.640625 79.804688 239.738281 80.902344 C 240.835938 82 242.347656 82.679688 244.007812 82.679688 C 245.667969 82.679688 247.179688 82 248.277344 80.902344 C 249.375 79.804688 250.058594 78.296875 250.058594 76.640625 L 250.058594 59.929688 C 250.058594 58.273438 249.375 56.765625 248.277344 55.667969 C 247.179688 54.574219 245.667969 53.894531 244.007812 53.894531 C 242.347656 53.894531 240.835938 54.574219 239.738281 55.667969 C 238.640625 56.765625 237.957031 58.273438 237.957031 59.929688 Z M 167.039062 59.929688 L 167.039062 76.640625 C 167.039062 78.296875 167.71875 79.804688 168.820312 80.902344 C 169.917969 82 171.429688 82.679688 173.089844 82.679688 C 174.75 82.679688 176.261719 82 177.359375 80.902344 C 178.457031 79.804688 179.140625 78.296875 179.140625 76.640625 L 179.140625 59.929688 C 179.140625 58.273438 178.457031 56.765625 177.359375 55.667969 C 176.261719 54.574219 174.75 53.894531 173.089844 53.894531 C 171.429688 53.894531 169.917969 54.574219 168.820312 55.667969 C 167.71875 56.765625 167.039062 58.273438 167.039062 59.929688 Z M 167.039062 59.929688 " fill-opacity="1" fill-rule="evenodd"/><path fill="#c5cff2" d="M 285.71875 115.054688 L 273.382812 115.054688 L 273.382812 239.371094 C 273.382812 243.363281 271.746094 246.992188 269.105469 249.625 C 266.46875 252.257812 262.828125 253.894531 258.832031 253.894531 L 62.675781 253.894531 C 62.652344 253.894531 62.628906 253.894531 62.605469 253.894531 C 63.207031 254.871094 63.925781 255.773438 64.734375 256.582031 C 67.375 259.214844 71.011719 260.851562 75.011719 260.851562 L 271.167969 260.851562 C 275.164062 260.851562 278.804688 259.214844 281.441406 256.582031 C 284.082031 253.949219 285.71875 250.320312 285.71875 246.328125 Z M 285.71875 115.054688 " fill-opacity="1" fill-rule="evenodd"/><path fill="#cc2a2e" d="M 60.457031 104.105469 L 60.457031 107.917969 L 285.71875 107.917969 L 285.71875 86.375 C 285.71875 82.386719 284.082031 78.753906 281.441406 76.121094 C 278.804688 73.488281 275.164062 71.855469 271.167969 71.855469 L 268.628906 71.855469 C 268.792969 72.003906 268.949219 72.152344 269.105469 72.308594 C 271.746094 74.941406 273.382812 78.574219 273.382812 82.5625 L 273.382812 102.769531 L 60.457031 102.769531 Z M 60.457031 104.105469 " fill-opacity="1" fill-rule="evenodd"/><path fill="#c5cff2" d="M 106.441406 80.902344 C 107.539062 79.804688 108.21875 78.296875 108.21875 76.640625 L 108.21875 59.929688 C 108.21875 58.273438 107.539062 56.765625 106.441406 55.667969 C 105.675781 54.90625 104.707031 54.34375 103.628906 54.074219 C 104.160156 54.96875 104.464844 56.011719 104.464844 57.121094 L 104.464844 73.832031 C 104.464844 75.488281 103.785156 76.996094 102.683594 78.09375 C 101.585938 79.1875 100.074219 79.867188 98.414062 79.867188 C 97.914062 79.867188 97.425781 79.804688 96.957031 79.6875 C 97.21875 80.132812 97.535156 80.539062 97.898438 80.902344 C 98.996094 82 100.507812 82.679688 102.167969 82.679688 C 103.828125 82.679688 105.339844 82 106.441406 80.902344 Z M 238.792969 79.6875 C 239.058594 80.132812 239.375 80.539062 239.738281 80.902344 C 240.835938 82 242.347656 82.679688 244.007812 82.679688 C 245.667969 82.679688 247.179688 82 248.277344 80.902344 C 249.375 79.804688 250.058594 78.296875 250.058594 76.640625 L 250.058594 59.929688 C 250.058594 58.273438 249.375 56.765625 248.277344 55.667969 C 247.511719 54.90625 246.546875 54.34375 245.46875 54.074219 C 246 54.96875 246.304688 56.011719 246.304688 57.121094 L 246.304688 73.832031 C 246.304688 75.488281 245.621094 76.996094 244.523438 78.09375 C 243.425781 79.1875 241.914062 79.867188 240.253906 79.867188 C 239.75 79.867188 239.261719 79.804688 238.792969 79.6875 Z M 167.875 79.6875 C 168.136719 80.132812 168.457031 80.539062 168.820312 80.902344 C 169.917969 82 171.429688 82.679688 173.089844 82.679688 C 174.75 82.679688 176.261719 82 177.359375 80.902344 C 178.457031 79.804688 179.140625 78.296875 179.140625 76.640625 L 179.140625 59.929688 C 179.140625 58.273438 178.457031 56.765625 177.359375 55.667969 C 176.59375 54.90625 175.625 54.34375 174.546875 54.074219 C 175.078125 54.96875 175.382812 56.011719 175.382812 57.121094 L 175.382812 73.832031 C 175.382812 75.488281 174.703125 76.996094 173.605469 78.09375 C 172.507812 79.1875 170.996094 79.867188 169.335938 79.867188 C 168.832031 79.867188 168.34375 79.804688 167.875 79.6875 Z M 167.875 79.6875 " fill-opacity="1" fill-rule="evenodd"/><path fill="#fbfbfb" d="M 100.71875 58.496094 C 100.71875 56.972656 99.664062 55.695312 98.242188 55.355469 C 98.125 55.453125 98.007812 55.558594 97.898438 55.667969 C 96.800781 56.765625 96.121094 58.273438 96.121094 59.929688 L 96.121094 61.429688 C 96.53125 61.621094 96.992188 61.726562 97.480469 61.726562 C 99.269531 61.726562 100.71875 60.28125 100.71875 58.496094 Z M 100.71875 58.496094 " fill-opacity="1" fill-rule="evenodd"/><path fill="#fbfbfb" d="M 171.636719 58.496094 C 171.636719 56.972656 170.582031 55.695312 169.160156 55.355469 C 169.042969 55.453125 168.929688 55.558594 168.820312 55.667969 C 167.71875 56.765625 167.039062 58.273438 167.039062 59.929688 L 167.039062 61.429688 C 167.453125 61.621094 167.914062 61.726562 168.398438 61.726562 C 170.1875 61.726562 171.636719 60.28125 171.636719 58.496094 Z M 171.636719 58.496094 " fill-opacity="1" fill-rule="evenodd"/><path fill="#fbfbfb" d="M 242.554688 58.496094 C 242.554688 56.972656 241.5 55.695312 240.078125 55.355469 C 239.960938 55.453125 239.847656 55.558594 239.738281 55.667969 C 238.640625 56.765625 237.957031 58.273438 237.957031 59.929688 L 237.957031 61.429688 C 238.371094 61.621094 238.832031 61.726562 239.316406 61.726562 C 241.105469 61.726562 242.554688 60.28125 242.554688 58.496094 Z M 242.554688 58.496094 " fill-opacity="1" fill-rule="evenodd"/><path fill="#000000" d="M 229.5 131.859375 L 244.042969 131.859375 C 248.933594 131.859375 253.371094 133.851562 256.589844 137.0625 C 259.808594 140.273438 261.804688 144.703125 261.804688 149.582031 L 261.804688 164.097656 C 261.804688 168.972656 259.808594 173.402344 256.589844 176.613281 C 253.371094 179.824219 248.933594 181.816406 244.042969 181.816406 L 229.5 181.816406 C 224.609375 181.816406 220.171875 179.824219 216.953125 176.613281 C 213.734375 173.402344 211.738281 168.972656 211.738281 164.097656 L 211.738281 149.582031 C 211.738281 144.703125 213.734375 140.273438 216.953125 137.0625 C 220.171875 133.851562 224.609375 131.859375 229.5 131.859375 Z M 229.5 131.859375 " fill-opacity="1" fill-rule="evenodd"/><path fill="#f14b4e" d="M 244.042969 138.996094 L 229.5 138.996094 C 226.585938 138.996094 223.933594 140.1875 222.007812 142.109375 C 220.085938 144.027344 218.890625 146.675781 218.890625 149.582031 L 218.890625 164.097656 C 218.890625 167.003906 220.085938 169.648438 222.007812 171.570312 C 223.933594 173.488281 226.585938 174.679688 229.5 174.679688 L 244.042969 174.679688 C 246.957031 174.679688 249.609375 173.488281 251.535156 171.570312 C 253.457031 169.648438 254.652344 167.003906 254.652344 164.097656 L 254.652344 149.582031 C 254.652344 146.675781 253.457031 144.027344 251.535156 142.109375 C 249.609375 140.1875 246.957031 138.996094 244.042969 138.996094 Z M 244.042969 138.996094 " fill-opacity="1" fill-rule="evenodd"/><path fill="#cc2a2e" d="M 244.042969 138.996094 L 243.757812 138.996094 C 245.203125 140.808594 246.070312 143.09375 246.070312 145.566406 L 246.070312 160.082031 C 246.070312 162.988281 244.875 165.632812 242.953125 167.554688 C 241.027344 169.476562 238.375 170.667969 235.460938 170.667969 L 221.203125 170.667969 C 221.453125 170.984375 221.722656 171.285156 222.007812 171.570312 C 223.933594 173.488281 226.585938 174.679688 229.5 174.679688 L 244.042969 174.679688 C 246.957031 174.679688 249.609375 173.488281 251.535156 171.570312 C 253.457031 169.648438 254.652344 167.003906 254.652344 164.097656 L 254.652344 149.582031 C 254.652344 146.675781 253.457031 144.027344 251.535156 142.109375 C 249.609375 140.1875 246.957031 138.996094 244.042969 138.996094 Z M 244.042969 138.996094 " fill-opacity="1" fill-rule="evenodd"/><path fill="#cc2a2e" d="M 238.640625 163.433594 C 240.507812 163.433594 242.363281 163.496094 244.203125 163.617188 C 235.746094 164.179688 227.640625 166.015625 220.074219 168.933594 C 219.566406 167.957031 219.207031 166.894531 219.023438 165.773438 C 225.3125 164.246094 231.882812 163.433594 238.640625 163.433594 Z M 238.640625 163.433594 " fill-opacity="1" fill-rule="evenodd"/><path fill="#c5cff2" d="M 213.511719 171.796875 C 205.300781 175.8125 197.855469 181.148438 191.460938 187.53125 C 189.1875 189.800781 187.046875 192.199219 185.050781 194.71875 C 183.554688 194.308594 181.984375 194.089844 180.363281 194.089844 L 174.425781 194.089844 C 176.277344 191.800781 178.25 189.609375 180.332031 187.53125 C 189.175781 178.707031 200.019531 171.878906 212.128906 167.777344 C 212.425781 169.183594 212.894531 170.53125 213.511719 171.796875 Z M 168.699219 260.851562 C 166.703125 250.136719 167.714844 255.554688 168.699219 260.851562 Z M 168.699219 260.851562 " fill-opacity="1" fill-rule="evenodd"/><path fill="#a4abca" d="M 156.582031 253.894531 C 156.8125 256.242188 157.144531 258.5625 157.570312 260.851562 L 168.699219 260.851562 C 168.273438 258.5625 167.941406 256.242188 167.710938 253.894531 Z M 156.582031 253.894531 " fill-opacity="1" fill-rule="evenodd"/><path fill="#000000" d="M 165.816406 194.089844 L 180.363281 194.089844 C 185.25 194.089844 189.691406 196.082031 192.90625 199.292969 C 196.125 202.503906 198.121094 206.933594 198.121094 211.8125 L 198.121094 226.324219 C 198.121094 231.203125 196.125 235.632812 192.90625 238.84375 C 189.691406 242.054688 185.25 244.046875 180.363281 244.046875 L 165.816406 244.046875 C 160.929688 244.046875 156.488281 242.054688 153.269531 238.84375 C 150.054688 235.632812 148.058594 231.203125 148.058594 226.324219 L 148.058594 211.8125 C 148.058594 206.933594 150.054688 202.503906 153.269531 199.292969 C 156.488281 196.082031 160.929688 194.089844 165.816406 194.089844 Z M 165.816406 194.089844 " fill-opacity="1" fill-rule="evenodd"/><path fill="#f14b4e" d="M 158.328125 204.339844 C 156.402344 206.257812 155.207031 208.902344 155.207031 211.8125 L 155.207031 226.324219 C 155.207031 229.230469 156.402344 231.878906 158.328125 233.796875 C 160.25 235.71875 162.902344 236.910156 165.816406 236.910156 L 180.363281 236.910156 C 183.277344 236.910156 185.925781 235.71875 187.851562 233.796875 C 189.777344 231.878906 190.96875 229.230469 190.96875 226.324219 L 190.96875 211.8125 C 190.96875 208.902344 189.777344 206.257812 187.851562 204.339844 C 185.925781 202.417969 183.277344 201.226562 180.363281 201.226562 L 165.816406 201.226562 C 162.902344 201.226562 160.25 202.417969 158.328125 204.339844 Z M 158.328125 204.339844 " fill-opacity="1" fill-rule="evenodd"/><path fill="#cc2a2e" d="M 157.519531 232.894531 C 157.773438 233.210938 158.042969 233.511719 158.328125 233.796875 C 160.25 235.71875 162.902344 236.910156 165.816406 236.910156 L 180.363281 236.910156 C 183.277344 236.910156 185.925781 235.71875 187.851562 233.796875 C 189.777344 231.878906 190.96875 229.230469 190.96875 226.324219 L 190.96875 211.8125 C 190.96875 208.902344 189.777344 206.257812 187.851562 204.339844 C 185.925781 202.417969 183.277344 201.226562 180.363281 201.226562 L 180.078125 201.226562 C 181.523438 203.035156 182.386719 205.320312 182.386719 207.796875 L 182.386719 222.3125 C 182.386719 225.21875 181.195312 227.863281 179.269531 229.785156 C 177.34375 231.703125 174.695312 232.894531 171.78125 232.894531 Z M 157.519531 232.894531 " fill-opacity="1" fill-rule="evenodd"/><path fill="#c5cff2" d="M 167.710938 253.894531 C 167.445312 251.203125 167.308594 248.476562 167.308594 245.714844 C 167.308594 245.15625 167.3125 244.601562 167.324219 244.046875 L 165.816406 244.046875 C 162.320312 244.046875 159.050781 243.027344 156.296875 241.269531 C 156.21875 242.742188 156.179688 244.222656 156.179688 245.714844 C 156.179688 248.476562 156.316406 251.203125 156.582031 253.894531 Z M 167.710938 253.894531 " fill-opacity="1" fill-rule="evenodd"/><path fill="#cc2a2e" d="M 180.390625 201.226562 C 180.34375 201.300781 180.296875 201.375 180.25 201.445312 C 181.589844 203.21875 182.386719 205.421875 182.386719 207.796875 L 182.386719 222.3125 C 182.386719 225.21875 181.195312 227.863281 179.269531 229.785156 C 177.34375 231.703125 174.695312 232.894531 171.78125 232.894531 L 168.304688 232.894531 C 168.097656 234.222656 167.917969 235.5625 167.777344 236.910156 L 165.816406 236.910156 C 162.902344 236.910156 160.25 235.71875 158.328125 233.796875 C 157.929688 233.402344 157.566406 232.976562 157.234375 232.523438 C 159.074219 221.140625 163.25 210.539062 169.261719 201.226562 Z M 179.53125 202.585938 C 179.5 202.636719 179.46875 202.6875 179.433594 202.742188 C 179.46875 202.6875 179.5 202.636719 179.53125 202.585938 Z M 178.574219 204.171875 C 178.539062 204.234375 178.503906 204.296875 178.464844 204.359375 C 178.503906 204.296875 178.539062 204.234375 178.574219 204.171875 Z M 177.464844 206.121094 C 177.429688 206.1875 177.390625 206.253906 177.355469 206.320312 C 177.390625 206.253906 177.429688 206.1875 177.464844 206.121094 Z M 177.179688 206.644531 C 177.148438 206.699219 177.121094 206.753906 177.089844 206.808594 C 177.121094 206.753906 177.148438 206.699219 177.179688 206.644531 Z M 174.507812 212.039062 C 174.484375 212.09375 174.460938 212.144531 174.441406 212.195312 C 174.460938 212.144531 174.484375 212.09375 174.507812 212.039062 Z M 173.390625 214.644531 C 173.363281 214.710938 173.335938 214.777344 173.308594 214.847656 C 173.335938 214.777344 173.363281 214.710938 173.390625 214.644531 Z M 173.171875 215.1875 C 173.148438 215.25 173.121094 215.308594 173.097656 215.367188 C 173.121094 215.308594 173.148438 215.25 173.171875 215.1875 Z M 172.691406 216.417969 C 172.667969 216.472656 172.648438 216.527344 172.628906 216.582031 C 172.648438 216.527344 172.667969 216.472656 172.691406 216.417969 Z M 172.492188 216.945312 C 172.464844 217.011719 172.441406 217.078125 172.414062 217.148438 C 172.441406 217.078125 172.464844 217.011719 172.492188 216.945312 Z M 172.101562 218.003906 C 172.074219 218.082031 172.046875 218.160156 172.019531 218.234375 C 172.046875 218.160156 172.074219 218.082031 172.101562 218.003906 Z M 171.726562 219.082031 C 171.699219 219.15625 171.671875 219.230469 171.648438 219.308594 C 171.671875 219.230469 171.699219 219.15625 171.726562 219.082031 Z M 171.539062 219.628906 C 171.515625 219.699219 171.492188 219.773438 171.46875 219.847656 C 171.492188 219.773438 171.515625 219.699219 171.539062 219.628906 Z M 171.121094 220.917969 C 171.105469 220.96875 171.089844 221.015625 171.074219 221.066406 C 171.089844 221.015625 171.105469 220.96875 171.121094 220.917969 Z M 170.785156 222 C 170.761719 222.078125 170.738281 222.15625 170.714844 222.234375 C 170.738281 222.15625 170.761719 222.078125 170.785156 222 Z M 170.308594 223.65625 C 170.285156 223.730469 170.265625 223.804688 170.246094 223.878906 C 170.265625 223.804688 170.285156 223.730469 170.308594 223.65625 Z M 170.152344 224.222656 C 170.132812 224.292969 170.113281 224.359375 170.09375 224.429688 C 170.113281 224.359375 170.132812 224.292969 170.152344 224.222656 Z M 169.671875 226.085938 C 169.652344 226.15625 169.636719 226.226562 169.621094 226.296875 C 169.636719 226.226562 169.652344 226.15625 169.671875 226.085938 Z M 169.535156 226.640625 C 169.519531 226.714844 169.5 226.789062 169.484375 226.863281 C 169.5 226.789062 169.519531 226.714844 169.535156 226.640625 Z M 169.03125 228.90625 C 169.015625 228.980469 169 229.054688 168.984375 229.128906 C 169 229.054688 169.015625 228.980469 169.03125 228.90625 Z M 168.65625 230.816406 C 168.644531 230.882812 168.632812 230.953125 168.621094 231.019531 C 168.632812 230.953125 168.644531 230.882812 168.65625 230.816406 Z M 168.554688 231.390625 C 168.542969 231.460938 168.53125 231.53125 168.519531 231.601562 C 168.53125 231.53125 168.542969 231.460938 168.554688 231.390625 Z M 168.457031 231.960938 C 168.445312 232.035156 168.429688 232.109375 168.417969 232.1875 C 168.429688 232.109375 168.445312 232.035156 168.457031 231.960938 Z M 168.457031 231.960938 " fill-opacity="1" fill-rule="evenodd"/><path fill="#000000" d="M 165.816406 131.859375 L 180.363281 131.859375 C 185.25 131.859375 189.691406 133.851562 192.90625 137.0625 C 196.125 140.273438 198.121094 144.703125 198.121094 149.582031 L 198.121094 164.097656 C 198.121094 168.972656 196.125 173.402344 192.90625 176.613281 C 189.691406 179.824219 185.25 181.816406 180.363281 181.816406 L 165.816406 181.816406 C 160.929688 181.816406 156.488281 179.824219 153.269531 176.613281 C 150.054688 173.402344 148.058594 168.972656 148.058594 164.097656 L 148.058594 149.582031 C 148.058594 144.703125 150.054688 140.273438 153.269531 137.0625 C 156.488281 133.851562 160.929688 131.859375 165.816406 131.859375 Z M 165.816406 131.859375 " fill-opacity="1" fill-rule="evenodd"/><path fill="#f14b4e" d="M 190.96875 149.582031 C 190.96875 146.675781 189.777344 144.027344 187.851562 142.109375 C 185.925781 140.1875 183.277344 138.996094 180.363281 138.996094 L 165.816406 138.996094 C 162.902344 138.996094 160.25 140.1875 158.328125 142.109375 C 156.402344 144.027344 155.207031 146.675781 155.207031 149.582031 L 155.207031 164.097656 C 155.207031 167.003906 156.402344 169.648438 158.328125 171.570312 C 160.25 173.488281 162.902344 174.679688 165.816406 174.679688 L 180.363281 174.679688 C 183.277344 174.679688 185.925781 173.488281 187.851562 171.570312 C 189.777344 169.648438 190.96875 167.003906 190.96875 164.097656 Z M 190.96875 149.582031 " fill-opacity="1" fill-rule="evenodd"/><path fill="#cc2a2e" d="M 190.96875 149.582031 C 190.96875 146.675781 189.777344 144.027344 187.851562 142.109375 C 185.925781 140.1875 183.277344 138.996094 180.363281 138.996094 L 180.078125 138.996094 C 181.523438 140.808594 182.386719 143.09375 182.386719 145.566406 L 182.386719 160.082031 C 182.386719 162.988281 181.195312 165.632812 179.269531 167.554688 C 177.34375 169.476562 174.695312 170.667969 171.78125 170.667969 L 157.519531 170.667969 C 157.773438 170.984375 158.042969 171.285156 158.328125 171.570312 C 160.25 173.488281 162.902344 174.679688 165.816406 174.679688 L 180.363281 174.679688 C 183.277344 174.679688 185.925781 173.488281 187.851562 171.570312 C 189.777344 169.648438 190.96875 167.003906 190.96875 164.097656 Z M 190.96875 149.582031 " fill-opacity="1" fill-rule="evenodd"/><path fill="#000000" d="M 102.132812 131.859375 L 116.679688 131.859375 C 121.566406 131.859375 126.007812 133.851562 129.226562 137.0625 C 132.441406 140.273438 134.4375 144.703125 134.4375 149.582031 L 134.4375 164.097656 C 134.4375 168.972656 132.441406 173.402344 129.226562 176.613281 C 126.007812 179.824219 121.566406 181.816406 116.679688 181.816406 L 102.132812 181.816406 C 97.246094 181.816406 92.804688 179.824219 89.589844 176.613281 C 86.371094 173.402344 84.375 168.972656 84.375 164.097656 L 84.375 149.582031 C 84.375 144.703125 86.371094 140.273438 89.589844 137.0625 C 92.804688 133.851562 97.246094 131.859375 102.132812 131.859375 Z M 102.132812 131.859375 " fill-opacity="1" fill-rule="evenodd"/><path fill="#f14b4e" d="M 127.289062 164.097656 L 127.289062 149.582031 C 127.289062 146.675781 126.09375 144.027344 124.167969 142.109375 C 122.246094 140.1875 119.59375 138.996094 116.679688 138.996094 L 102.132812 138.996094 C 99.21875 138.996094 96.570312 140.1875 94.644531 142.109375 C 92.722656 144.027344 91.527344 146.675781 91.527344 149.582031 L 91.527344 164.097656 C 91.527344 167.003906 92.722656 169.648438 94.644531 171.570312 C 96.570312 173.488281 99.21875 174.679688 102.132812 174.679688 L 116.679688 174.679688 C 119.59375 174.679688 122.246094 173.488281 124.167969 171.570312 C 126.09375 169.648438 127.289062 167.003906 127.289062 164.097656 Z M 127.289062 164.097656 " fill-opacity="1" fill-rule="evenodd"/><path fill="#cc2a2e" d="M 127.289062 164.097656 L 127.289062 149.582031 C 127.289062 146.675781 126.09375 144.027344 124.167969 142.109375 C 122.246094 140.1875 119.59375 138.996094 116.679688 138.996094 L 116.394531 138.996094 C 117.839844 140.808594 118.707031 143.09375 118.707031 145.566406 L 118.707031 160.082031 C 118.707031 162.988281 117.511719 165.632812 115.585938 167.554688 C 113.664062 169.476562 111.011719 170.667969 108.097656 170.667969 L 93.835938 170.667969 C 94.089844 170.984375 94.359375 171.285156 94.644531 171.570312 C 96.570312 173.488281 99.21875 174.679688 102.132812 174.679688 L 116.679688 174.679688 C 119.59375 174.679688 122.246094 173.488281 124.167969 171.570312 C 126.09375 169.648438 127.289062 167.003906 127.289062 164.097656 Z M 127.289062 164.097656 " fill-opacity="1" fill-rule="evenodd"/><path fill="#000000" d="M 102.132812 194.089844 L 116.679688 194.089844 C 121.566406 194.089844 126.007812 196.082031 129.226562 199.292969 C 132.441406 202.503906 134.4375 206.933594 134.4375 211.8125 L 134.4375 226.324219 C 134.4375 231.203125 132.441406 235.632812 129.226562 238.84375 C 126.007812 242.054688 121.566406 244.046875 116.679688 244.046875 L 102.132812 244.046875 C 97.246094 244.046875 92.804688 242.054688 89.589844 238.84375 C 86.371094 235.632812 84.375 231.203125 84.375 226.324219 L 84.375 211.8125 C 84.375 206.933594 86.371094 202.503906 89.589844 199.292969 C 92.804688 196.082031 97.246094 194.089844 102.132812 194.089844 Z M 102.132812 194.089844 " fill-opacity="1" fill-rule="evenodd"/><path fill="#f14b4e" d="M 116.679688 201.226562 L 102.132812 201.226562 C 99.21875 201.226562 96.570312 202.417969 94.644531 204.339844 C 92.722656 206.257812 91.527344 208.902344 91.527344 211.8125 L 91.527344 226.324219 C 91.527344 229.230469 92.722656 231.878906 94.644531 233.796875 C 96.570312 235.71875 99.21875 236.910156 102.132812 236.910156 L 116.679688 236.910156 C 119.59375 236.910156 122.246094 235.71875 124.167969 233.796875 C 126.09375 231.878906 127.289062 229.230469 127.289062 226.324219 L 127.289062 211.8125 C 127.289062 208.902344 126.09375 206.257812 124.167969 204.339844 C 122.246094 202.417969 119.59375 201.226562 116.679688 201.226562 Z M 116.679688 201.226562 " fill-opacity="1" fill-rule="evenodd"/><path fill="#cc2a2e" d="M 116.679688 201.226562 L 116.394531 201.226562 C 117.839844 203.035156 118.707031 205.320312 118.707031 207.796875 L 118.707031 222.3125 C 118.707031 225.21875 117.511719 227.863281 115.585938 229.785156 C 113.664062 231.703125 111.011719 232.894531 108.097656 232.894531 L 93.835938 232.894531 C 94.089844 233.210938 94.359375 233.511719 94.644531 233.796875 C 96.570312 235.71875 99.21875 236.910156 102.132812 236.910156 L 116.679688 236.910156 C 119.59375 236.910156 122.246094 235.71875 124.167969 233.796875 C 126.09375 231.878906 127.289062 229.230469 127.289062 226.324219 L 127.289062 211.8125 C 127.289062 208.902344 126.09375 206.257812 124.167969 204.339844 C 122.246094 202.417969 119.59375 201.226562 116.679688 201.226562 Z M 116.679688 201.226562 " fill-opacity="1" fill-rule="evenodd"/><path fill="#000000" d="M 229.5 194.089844 L 244.042969 194.089844 C 248.933594 194.089844 253.371094 196.082031 256.589844 199.292969 C 259.808594 202.503906 261.804688 206.933594 261.804688 211.8125 L 261.804688 226.324219 C 261.804688 231.203125 259.808594 235.632812 256.589844 238.84375 C 253.371094 242.054688 248.933594 244.046875 244.042969 244.046875 L 229.5 244.046875 C 224.609375 244.046875 220.171875 242.054688 216.953125 238.84375 C 213.734375 235.632812 211.738281 231.203125 211.738281 226.324219 L 211.738281 211.8125 C 211.738281 206.933594 213.734375 202.503906 216.953125 199.292969 C 220.171875 196.082031 224.609375 194.089844 229.5 194.089844 Z M 229.5 194.089844 " fill-opacity="1" fill-rule="evenodd"/><path fill="#f14b4e" d="M 222.007812 204.339844 C 220.085938 206.257812 218.890625 208.902344 218.890625 211.8125 L 218.890625 226.324219 C 218.890625 229.230469 220.085938 231.878906 222.007812 233.796875 C 223.933594 235.71875 226.585938 236.910156 229.5 236.910156 L 244.042969 236.910156 C 246.957031 236.910156 249.609375 235.71875 251.535156 233.796875 C 253.457031 231.878906 254.652344 229.230469 254.652344 226.324219 L 254.652344 211.8125 C 254.652344 208.902344 253.457031 206.257812 251.535156 204.339844 C 249.609375 202.417969 246.957031 201.226562 244.042969 201.226562 L 229.5 201.226562 C 226.585938 201.226562 223.933594 202.417969 222.007812 204.339844 Z M 222.007812 204.339844 " fill-opacity="1" fill-rule="evenodd"/><path fill="#cc2a2e" d="M 221.203125 232.894531 C 221.453125 233.210938 221.722656 233.511719 222.007812 233.796875 C 223.933594 235.71875 226.585938 236.910156 229.5 236.910156 L 244.042969 236.910156 C 246.957031 236.910156 249.609375 235.71875 251.535156 233.796875 C 253.457031 231.878906 254.652344 229.230469 254.652344 226.324219 L 254.652344 211.8125 C 254.652344 208.902344 253.457031 206.257812 251.535156 204.339844 C 249.609375 202.417969 246.957031 201.226562 244.042969 201.226562 L 243.757812 201.226562 C 245.203125 203.035156 246.070312 205.320312 246.070312 207.796875 L 246.070312 222.3125 C 246.070312 225.21875 244.875 227.863281 242.953125 229.785156 C 241.027344 231.703125 238.375 232.894531 235.460938 232.894531 Z M 221.203125 232.894531 " fill-opacity="1" fill-rule="evenodd"/><g clip-path="url(#03122ca755)"><path fill="#000000" d="M 249.769531 163.433594 C 272.539062 163.433594 293.15625 172.644531 308.078125 187.53125 C 323 202.421875 332.230469 222.992188 332.230469 245.714844 C 332.230469 268.4375 323 289.007812 308.078125 303.898438 C 293.15625 318.789062 272.539062 327.996094 249.769531 327.996094 C 226.996094 327.996094 206.382812 318.789062 191.460938 303.898438 C 176.539062 289.007812 167.308594 268.4375 167.308594 245.714844 C 167.308594 222.992188 176.539062 202.421875 191.460938 187.53125 C 206.382812 172.644531 226.996094 163.433594 249.769531 163.433594 Z M 249.769531 163.433594 " fill-opacity="1" fill-rule="evenodd"/></g><path fill="#c8e5fe" d="M 291.234375 204.339844 C 280.621094 193.753906 265.960938 187.203125 249.769531 187.203125 C 233.574219 187.203125 218.914062 193.753906 208.304688 204.339844 C 197.691406 214.929688 191.128906 229.558594 191.128906 245.714844 C 191.128906 261.875 197.691406 276.5 208.304688 287.089844 C 218.914062 297.679688 233.574219 304.226562 249.769531 304.226562 C 265.960938 304.226562 280.621094 297.679688 291.234375 287.089844 C 301.84375 276.5 308.410156 261.875 308.410156 245.714844 C 308.410156 229.558594 301.84375 214.929688 291.234375 204.339844 Z M 291.234375 204.339844 " fill-opacity="1" fill-rule="evenodd"/><path fill="#ffd305" d="M 249.769531 180.066406 C 267.9375 180.066406 284.382812 187.414062 296.289062 199.296875 C 308.195312 211.175781 315.558594 227.585938 315.558594 245.714844 C 315.558594 263.84375 308.195312 280.253906 296.289062 292.136719 C 284.382812 304.015625 267.9375 311.363281 249.769531 311.363281 C 231.601562 311.363281 215.152344 304.015625 203.25 292.136719 C 191.34375 280.253906 183.976562 263.84375 183.976562 245.714844 C 183.976562 227.585938 191.34375 211.175781 203.25 199.296875 C 215.152344 187.414062 231.601562 180.066406 249.769531 180.066406 Z M 196.515625 192.578125 C 182.886719 206.175781 174.460938 224.964844 174.460938 245.714844 C 174.460938 266.46875 182.886719 285.253906 196.515625 298.851562 C 210.144531 312.449219 228.972656 320.863281 249.769531 320.863281 C 270.566406 320.863281 289.394531 312.449219 303.023438 298.851562 C 316.648438 285.253906 325.078125 266.46875 325.078125 245.714844 C 325.078125 224.964844 316.648438 206.175781 303.023438 192.578125 C 289.394531 178.980469 270.566406 170.570312 249.769531 170.570312 C 228.972656 170.570312 210.144531 178.980469 196.515625 192.578125 Z M 196.515625 192.578125 " fill-opacity="1" fill-rule="evenodd"/><path fill="#feb602" d="M 299.265625 297.515625 C 285.640625 311.113281 266.8125 319.523438 246.015625 319.523438 C 237.828125 319.523438 229.945312 318.21875 222.566406 315.808594 C 231.003906 319.070312 240.175781 320.863281 249.769531 320.863281 C 270.566406 320.863281 289.394531 312.449219 303.023438 298.851562 C 316.648438 285.253906 325.078125 266.46875 325.078125 245.714844 C 325.078125 224.964844 316.648438 206.175781 303.023438 192.578125 C 299.898438 189.460938 296.503906 186.617188 292.871094 184.085938 C 290.578125 182.484375 288.191406 181.007812 285.71875 179.667969 C 281.804688 177.542969 277.679688 175.75 273.382812 174.335938 C 273.328125 174.320312 273.273438 174.300781 273.21875 174.28125 C 273.273438 174.304688 273.328125 174.324219 273.382812 174.347656 C 277.703125 176.027344 281.832031 178.097656 285.71875 180.511719 C 288.203125 182.050781 290.589844 183.734375 292.871094 185.542969 C 295.109375 187.320312 297.246094 189.222656 299.265625 191.242188 C 312.894531 204.839844 321.324219 223.625 321.324219 244.378906 C 321.324219 265.128906 312.894531 283.914062 299.265625 297.515625 Z M 299.265625 297.515625 " fill-opacity="1" fill-rule="evenodd"/><path fill="#a2cee8" d="M 262.617188 267.988281 C 252.265625 277.144531 238.648438 282.703125 223.726562 282.703125 C 215.644531 282.703125 207.941406 281.070312 200.933594 278.117188 C 203.09375 281.351562 205.5625 284.355469 208.304688 287.089844 C 218.914062 297.679688 233.574219 304.226562 249.769531 304.226562 C 265.960938 304.226562 280.621094 297.679688 291.234375 287.089844 C 301.84375 276.5 308.410156 261.875 308.410156 245.714844 C 308.410156 230.40625 302.515625 216.46875 292.871094 206.042969 C 292.335938 205.464844 291.789062 204.898438 291.234375 204.339844 C 289.5 202.609375 287.660156 200.988281 285.71875 199.484375 C 281.949219 196.5625 277.808594 194.085938 273.382812 192.140625 C 273.109375 192.019531 272.835938 191.902344 272.5625 191.789062 C 272.839844 192.207031 273.117188 192.628906 273.382812 193.054688 C 279.074219 202.070312 282.367188 212.746094 282.367188 224.191406 C 282.367188 238.070312 277.523438 250.820312 269.433594 260.851562 C 268.105469 262.5 266.6875 264.070312 265.191406 265.566406 C 264.359375 266.398438 263.5 267.207031 262.617188 267.988281 Z M 262.617188 267.988281 " fill-opacity="1" fill-rule="evenodd"/><path fill="#e8f4fe" d="M 220.964844 194.738281 C 216.3125 197.359375 212.054688 200.597656 208.304688 204.339844 C 204.28125 208.351562 200.84375 212.945312 198.121094 217.980469 C 195.992188 221.921875 194.304688 226.132812 193.117188 230.550781 C 194.3125 231.375 195.589844 232.085938 196.9375 232.675781 C 199.726562 233.890625 202.804688 234.566406 206.042969 234.566406 C 208.554688 234.566406 210.96875 234.160156 213.226562 233.414062 C 215.535156 232.648438 217.679688 231.519531 219.59375 230.101562 C 225.175781 225.964844 228.792969 219.339844 228.792969 211.871094 C 228.792969 208.210938 227.925781 204.753906 226.382812 201.695312 C 225.265625 199.476562 223.796875 197.464844 222.042969 195.734375 C 221.695312 195.390625 221.335938 195.058594 220.964844 194.738281 Z M 220.964844 194.738281 " fill-opacity="1" fill-rule="evenodd"/><path fill="#000000" d="M 246.191406 199.820312 C 246.191406 197.847656 247.792969 196.25 249.769531 196.25 C 251.742188 196.25 253.34375 197.847656 253.34375 199.820312 L 253.34375 200.386719 C 253.34375 202.359375 251.742188 203.957031 249.769531 203.957031 C 247.792969 203.957031 246.191406 202.359375 246.191406 200.386719 Z M 246.191406 291.042969 C 246.191406 289.070312 247.792969 287.472656 249.769531 287.472656 C 251.742188 287.472656 253.34375 289.070312 253.34375 291.042969 L 253.34375 291.609375 C 253.34375 293.582031 251.742188 295.175781 249.769531 295.175781 C 247.792969 295.175781 246.191406 293.582031 246.191406 291.609375 Z M 246.191406 291.042969 " fill-opacity="1" fill-rule="evenodd"/><path fill="#000000" d="M 295.765625 242.144531 C 297.738281 242.144531 299.339844 243.742188 299.339844 245.714844 C 299.339844 247.683594 297.738281 249.28125 295.765625 249.28125 L 295.195312 249.28125 C 293.222656 249.28125 291.621094 247.683594 291.621094 245.714844 C 291.621094 243.742188 293.222656 242.144531 295.195312 242.144531 Z M 204.34375 242.144531 C 206.316406 242.144531 207.917969 243.742188 207.917969 245.714844 C 207.917969 247.683594 206.316406 249.28125 204.34375 249.28125 L 203.773438 249.28125 C 201.796875 249.28125 200.199219 247.683594 200.199219 245.714844 C 200.199219 243.742188 201.796875 242.144531 203.773438 242.144531 Z M 204.34375 242.144531 " fill-opacity="1" fill-rule="evenodd"/><path fill="#000000" d="M 291.398438 265.585938 C 293.101562 266.570312 293.683594 268.75 292.695312 270.449219 C 291.707031 272.152344 289.527344 272.730469 287.820312 271.746094 L 287.328125 271.464844 C 285.625 270.476562 285.042969 268.300781 286.03125 266.597656 C 287.019531 264.898438 289.199219 264.316406 290.90625 265.304688 Z M 212.210938 219.964844 C 213.914062 220.949219 214.496094 223.128906 213.511719 224.828125 C 212.523438 226.53125 210.339844 227.109375 208.636719 226.125 L 208.140625 225.839844 C 206.4375 224.855469 205.855469 222.679688 206.84375 220.976562 C 207.828125 219.277344 210.011719 218.695312 211.71875 219.679688 Z M 212.210938 219.964844 " fill-opacity="1" fill-rule="evenodd"/><path fill="#000000" d="M 275.859375 283.699219 C 276.835938 285.398438 276.25 287.570312 274.546875 288.546875 C 272.839844 289.523438 270.664062 288.9375 269.683594 287.238281 L 269.398438 286.746094 C 268.421875 285.046875 269.007812 282.875 270.714844 281.894531 C 272.417969 280.917969 274.59375 281.503906 275.574219 283.207031 Z M 230.140625 204.683594 C 231.117188 206.382812 230.53125 208.554688 228.828125 209.53125 C 227.121094 210.511719 224.945312 209.921875 223.964844 208.222656 L 223.683594 207.730469 C 222.703125 206.03125 223.289062 203.859375 224.996094 202.878906 C 226.699219 201.902344 228.875 202.488281 229.855469 204.191406 Z M 230.140625 204.683594 " fill-opacity="1" fill-rule="evenodd"/><path fill="#000000" d="M 211.71875 271.746094 C 210.011719 272.730469 207.828125 272.152344 206.84375 270.449219 C 205.855469 268.75 206.4375 266.570312 208.140625 265.585938 L 208.636719 265.300781 C 210.339844 264.316406 212.523438 264.894531 213.511719 266.597656 C 214.496094 268.296875 213.914062 270.476562 212.210938 271.460938 Z M 290.890625 226.125 C 289.183594 227.101562 287.007812 226.515625 286.03125 224.816406 C 285.050781 223.113281 285.636719 220.941406 287.34375 219.964844 L 287.835938 219.683594 C 289.539062 218.703125 291.714844 219.289062 292.695312 220.992188 C 293.675781 222.695312 293.085938 224.863281 291.382812 225.84375 Z M 290.890625 226.125 " fill-opacity="1" fill-rule="evenodd"/><path fill="#000000" d="M 229.855469 287.238281 C 228.875 288.9375 226.699219 289.523438 224.996094 288.546875 C 223.289062 287.570312 222.703125 285.398438 223.683594 283.699219 L 223.964844 283.207031 C 224.945312 281.503906 227.121094 280.917969 228.828125 281.894531 C 230.53125 282.875 231.117188 285.046875 230.140625 286.746094 Z M 275.574219 208.222656 C 274.59375 209.921875 272.417969 210.511719 270.714844 209.53125 C 269.007812 208.554688 268.421875 206.382812 269.398438 204.683594 L 269.683594 204.191406 C 270.664062 202.488281 272.839844 201.902344 274.546875 202.878906 C 276.25 203.859375 276.835938 206.03125 275.859375 207.730469 Z M 275.574219 208.222656 " fill-opacity="1" fill-rule="evenodd"/><path fill="#000000" d="M 249.769531 236.863281 C 252.21875 236.863281 254.433594 237.855469 256.039062 239.457031 C 257.644531 241.058594 258.636719 243.273438 258.636719 245.714844 C 258.636719 248.160156 257.644531 250.371094 256.039062 251.972656 C 254.433594 253.574219 252.21875 254.566406 249.769531 254.566406 C 247.320312 254.566406 245.101562 253.574219 243.5 251.972656 C 241.894531 250.371094 240.898438 248.160156 240.898438 245.714844 C 240.898438 243.273438 241.894531 241.058594 243.5 239.457031 C 245.101562 237.855469 247.320312 236.863281 249.769531 236.863281 Z M 249.769531 236.863281 " fill-opacity="1" fill-rule="evenodd"/><path fill="#000000" d="M 253.34375 245.714844 C 253.34375 247.683594 251.746094 249.28125 249.769531 249.28125 C 247.796875 249.28125 246.195312 247.683594 246.195312 245.714844 L 246.195312 212.726562 C 246.195312 210.757812 247.796875 209.160156 249.769531 209.160156 C 251.746094 209.160156 253.34375 210.757812 253.34375 212.726562 Z M 253.34375 245.714844 " fill-opacity="1" fill-rule="evenodd"/><path fill="#000000" d="M 247.996094 248.792969 C 246.289062 247.816406 245.703125 245.644531 246.683594 243.945312 C 247.664062 242.242188 249.839844 241.65625 251.542969 242.632812 L 272.007812 254.425781 C 273.714844 255.402344 274.300781 257.574219 273.320312 259.273438 C 272.34375 260.976562 270.167969 261.5625 268.460938 260.585938 Z M 247.996094 248.792969 " fill-opacity="1" fill-rule="evenodd"/></svg>